<?xml version="1.0" encoding="UTF-8"?>
<!DOCTYPE svg PUBLIC "-//W3C//DTD SVG 1.1//EN" "http://www.w3.org/Graphics/SVG/1.1/DTD/svg11.dtd">
<svg xmlns="http://www.w3.org/2000/svg" version="1.1" width="1000px" height="1000px" style="shape-rendering:geometricPrecision; text-rendering:geometricPrecision; image-rendering:optimizeQuality; fill-rule:evenodd; clip-rule:evenodd" xmlns:xlink="http://www.w3.org/1999/xlink">
<g><path style="opacity:1" fill="#f095d8" d="M 180.5,-0.5 C 393.167,-0.5 605.833,-0.5 818.5,-0.5C 895.782,9.61897 950.949,49.9523 984,120.5C 991.854,139.588 997.021,159.255 999.5,179.5C 999.5,392.833 999.5,606.167 999.5,819.5C 988.767,896.141 948.434,950.974 878.5,984C 859.663,991.566 840.33,996.732 820.5,999.5C 606.5,999.5 392.5,999.5 178.5,999.5C 102.285,988.445 47.7849,948.111 15,878.5C 7.14607,859.412 1.9794,839.745 -0.5,819.5C -0.5,606.167 -0.5,392.833 -0.5,179.5C 12.3039,93.1885 59.9706,35.6885 142.5,7C 155.143,3.63775 167.809,1.13775 180.5,-0.5 Z"/></g>
<g><path style="opacity:1" fill="#030303" d="M 674.5,222.5 C 674.5,277.5 674.5,332.5 674.5,387.5C 708.167,387.5 741.833,387.5 775.5,387.5C 780.987,388.813 784.82,392.147 787,397.5C 787.667,421.5 787.667,445.5 787,469.5C 784.829,474.844 780.996,478.177 775.5,479.5C 741.833,479.5 708.167,479.5 674.5,479.5C 674.168,545.669 674.501,611.669 675.5,677.5C 714.501,677.333 753.501,677.5 792.5,678C 797.333,680.167 800.833,683.667 803,688.5C 803.667,712.167 803.667,735.833 803,759.5C 801.474,765.026 797.974,768.526 792.5,770C 674.833,770.667 557.167,770.667 439.5,770C 435.333,768.5 432.5,765.667 431,761.5C 427.531,736.593 425.531,711.593 425,686.5C 427.222,682.612 430.388,679.779 434.5,678C 480.499,677.5 526.499,677.333 572.5,677.5C 572.5,611.833 572.5,546.167 572.5,480.5C 542.338,479.502 512.005,479.169 481.5,479.5C 481.5,502.833 481.5,526.167 481.5,549.5C 479.391,556.649 474.558,560.315 467,560.5C 450.942,555.203 434.775,550.203 418.5,545.5C 418.667,623.834 418.5,702.167 418,780.5C 416.141,785.026 412.974,788.192 408.5,790C 381.5,790.667 354.5,790.667 327.5,790C 322.176,787.523 319.176,783.356 318.5,777.5C 318.667,710.499 318.5,643.499 318,576.5C 317.545,579.854 317.045,583.187 316.5,586.5C 311.151,623.229 302.651,659.229 291,694.5C 286.745,701.54 280.578,704.04 272.5,702C 255.439,696.869 238.439,691.535 221.5,686C 216.674,682.858 214.007,678.358 213.5,672.5C 232.872,613.072 243.372,552.072 245,489.5C 245.333,460.5 245.667,431.5 246,402.5C 246.557,400.385 247.391,398.385 248.5,396.5C 240.694,395.529 235.861,391.196 234,383.5C 231.991,360.124 229.991,336.79 228,313.5C 229.833,309 233,305.833 237.5,304C 264.498,303.5 291.498,303.333 318.5,303.5C 318.333,275.831 318.5,248.165 319,220.5C 320.833,216 324,212.833 328.5,211C 354.833,210.333 381.167,210.333 407.5,211C 412.573,212.406 416.073,215.572 418,220.5C 418.5,248.165 418.667,275.831 418.5,303.5C 435.17,303.333 451.837,303.5 468.5,304C 473,305.833 476.167,309 478,313.5C 478.823,337.876 478.657,362.209 477.5,386.5C 509.16,387.5 540.826,387.833 572.5,387.5C 572.333,331.832 572.5,276.166 573,220.5C 574.833,216 578,212.833 582.5,211C 609.5,210.333 636.5,210.333 663.5,211C 669.426,212.757 673.092,216.591 674.5,222.5 Z"/></g>
<g><path style="opacity:1" fill="#fefefe" d="M 333.5,776.5 C 333.5,688.5 333.5,600.5 333.5,512.5C 331.833,512.5 330.167,512.5 328.5,512.5C 321.814,512.473 315.148,512.139 308.5,511.5C 306.491,571.593 296.491,630.26 278.5,687.5C 261.76,683.148 245.093,678.481 228.5,673.5C 247.788,611.653 258.288,548.32 260,483.5C 260.5,457.502 260.667,431.502 260.5,405.5C 276.833,405.5 293.167,405.5 309.5,405.5C 309.5,419.833 309.5,434.167 309.5,448.5C 313.5,448.5 317.5,448.5 321.5,448.5C 322.833,448.5 324.167,448.5 325.5,448.5C 327.948,449.473 330.615,449.806 333.5,449.5C 333.831,426.661 333.497,403.994 332.5,381.5C 304.5,381.5 276.5,381.5 248.5,381.5C 246.39,360.181 244.39,338.848 242.5,317.5C 272.5,317.5 302.5,317.5 332.5,317.5C 332.5,286.833 332.5,256.167 332.5,225.5C 356.167,225.5 379.833,225.5 403.5,225.5C 403.5,256.167 403.5,286.833 403.5,317.5C 423.5,317.5 443.5,317.5 463.5,317.5C 463.5,338.833 463.5,360.167 463.5,381.5C 443.5,381.5 423.5,381.5 403.5,381.5C 403.5,408.167 403.5,434.833 403.5,461.5C 424.806,466.912 445.806,473.412 466.5,481C 467.66,502.76 467.827,524.594 467,546.5C 446.684,538.044 425.85,531.044 404.5,525.5C 403.5,609.164 403.167,692.831 403.5,776.5C 380.167,776.5 356.833,776.5 333.5,776.5 Z"/></g>
<g><path style="opacity:1" fill="#fdfdfd" d="M 586.5,692.5 C 587.499,616.668 587.833,540.668 587.5,464.5C 550.167,464.5 512.833,464.5 475.5,464.5C 475.768,462.901 475.434,461.568 474.5,460.5C 472.782,440.836 471.116,421.17 469.5,401.5C 508.833,401.5 548.167,401.5 587.5,401.5C 587.5,342.833 587.5,284.167 587.5,225.5C 611.833,225.5 636.167,225.5 660.5,225.5C 660.5,284.167 660.5,342.833 660.5,401.5C 697.833,401.5 735.167,401.5 772.5,401.5C 772.5,422.833 772.5,444.167 772.5,465.5C 735.167,465.5 697.833,465.5 660.5,465.5C 660.5,541.167 660.5,616.833 660.5,692.5C 703.167,692.5 745.833,692.5 788.5,692.5C 788.5,713.833 788.5,735.167 788.5,756.5C 673.833,756.5 559.167,756.5 444.5,756.5C 442.644,735.469 440.644,714.469 438.5,693.5C 487.829,692.5 537.162,692.167 586.5,692.5 Z"/></g>
<g><path style="opacity:1" fill="#7d4e70" d="M 674.5,222.5 C 675.499,276.997 675.832,331.664 675.5,386.5C 709.004,386.168 742.338,386.502 775.5,387.5C 741.833,387.5 708.167,387.5 674.5,387.5C 674.5,332.5 674.5,277.5 674.5,222.5 Z"/></g>
<g><path style="opacity:1" fill="#898989" d="M 332.5,381.5 C 333.497,403.994 333.831,426.661 333.5,449.5C 330.615,449.806 327.948,449.473 325.5,448.5C 327.833,448.5 330.167,448.5 332.5,448.5C 332.5,426.167 332.5,403.833 332.5,381.5 Z"/></g>
<g><path style="opacity:1" fill="#784b6c" d="M 418.5,396.5 C 430.655,395.505 442.989,395.171 455.5,395.5C 455.737,396.791 455.404,397.791 454.5,398.5C 442.88,396.521 430.88,395.854 418.5,396.5 Z"/></g>
<g><path style="opacity:1" fill="#ee94d7" d="M 418.5,396.5 C 430.88,395.854 442.88,396.521 454.5,398.5C 456.048,417.674 457.715,436.84 459.5,456C 459.167,458.167 458.833,460.333 458.5,462.5C 445.621,458.096 432.621,454.096 419.5,450.5C 418.5,432.512 418.167,414.512 418.5,396.5 Z"/></g>
<g><path style="opacity:1" fill="#3a3a3a" d="M 309.5,405.5 C 310.496,419.323 310.829,433.323 310.5,447.5C 314.371,447.185 318.038,447.518 321.5,448.5C 317.5,448.5 313.5,448.5 309.5,448.5C 309.5,434.167 309.5,419.833 309.5,405.5 Z"/></g>
<g><path style="opacity:1" fill="#9a9a9a" d="M 474.5,460.5 C 475.434,461.568 475.768,462.901 475.5,464.5C 512.833,464.5 550.167,464.5 587.5,464.5C 587.833,540.668 587.499,616.668 586.5,692.5C 586.5,616.833 586.5,541.167 586.5,465.5C 549.167,465.5 511.833,465.5 474.5,465.5C 474.5,463.833 474.5,462.167 474.5,460.5 Z"/></g>
<g><path style="opacity:1" fill="#7d4e70" d="M 775.5,479.5 C 742.338,480.498 709.004,480.832 675.5,480.5C 675.5,546.167 675.5,611.833 675.5,677.5C 674.501,611.669 674.168,545.669 674.5,479.5C 708.167,479.5 741.833,479.5 775.5,479.5 Z"/></g>
<g><path style="opacity:1" fill="#7a4b6d" d="M 572.5,480.5 C 542.5,480.5 512.5,480.5 482.5,480.5C 482.831,503.673 482.498,526.673 481.5,549.5C 481.5,526.167 481.5,502.833 481.5,479.5C 512.005,479.169 542.338,479.502 572.5,480.5 Z"/></g>
<g><path style="opacity:1" fill="#888888" d="M 328.5,512.5 C 330.167,512.5 331.833,512.5 333.5,512.5C 333.5,600.5 333.5,688.5 333.5,776.5C 332.501,689.002 332.167,601.335 332.5,513.5C 330.901,513.768 329.568,513.434 328.5,512.5 Z"/></g>
<g><path style="opacity:1" fill="#c178ad" d="M 318.5,777.5 C 317.833,713.833 317.167,650.167 316.5,586.5C 317.045,583.187 317.545,579.854 318,576.5C 318.5,643.499 318.667,710.499 318.5,777.5 Z"/></g>
</svg>
